<?xml version="1.0" encoding="UTF-8" ?>
<!DOCTYPE svg PUBLIC "-//W3C//DTD SVG 1.1//EN" "http://www.w3.org/Graphics/SVG/1.1/DTD/svg11.dtd">
<svg width="512pt" height="512pt" viewBox="0 0 512 512" version="1.1" xmlns="http://www.w3.org/2000/svg">
<g id="#eb7fd7ff">
<path fill="#eb7fd7" opacity="1.00" d=" M 247.02 104.79 C 264.17 102.09 282.22 107.35 295.65 118.26 C 313.20 132.16 323.00 155.67 319.05 177.88 C 318.93 175.96 318.74 174.05 318.60 172.14 C 279.08 171.70 239.53 172.15 200.01 171.92 C 197.79 171.89 195.57 171.99 193.36 172.14 C 193.20 174.08 193.03 176.02 192.95 177.98 C 190.31 162.90 193.83 146.93 202.13 134.11 C 212.03 118.58 228.71 107.34 247.02 104.79 Z" />
</g>
<g id="#f08bd3ff">
<path fill="#f08bd3" opacity="1.00" d=" M 193.36 172.14 C 195.57 171.99 197.79 171.89 200.01 171.92 C 239.53 172.15 279.08 171.70 318.60 172.14 C 318.74 174.05 318.93 175.96 319.05 177.88 C 317.00 191.28 310.20 203.72 300.70 213.31 C 296.19 214.29 291.57 214.04 286.99 213.99 C 267.00 214.01 247.00 213.89 227.01 214.02 C 221.79 213.80 216.49 214.40 211.34 213.31 C 201.80 203.78 195.00 191.36 192.95 177.98 C 193.03 176.02 193.20 174.08 193.36 172.14 Z" />
</g>
<g id="#f292d0ff">
<path fill="#f292d0" opacity="1.00" d=" M 211.34 213.31 C 216.49 214.40 221.79 213.80 227.01 214.02 C 247.00 213.89 267.00 214.01 286.99 213.99 C 291.57 214.04 296.19 214.29 300.70 213.31 C 287.02 226.75 267.17 234.11 248.05 231.33 C 234.23 229.69 221.28 222.95 211.34 213.31 Z" />
</g>
<g id="#f8a3cbff">
<path fill="#f8a3cb" opacity="1.00" d=" M 199.24 259.24 C 217.81 251.59 237.96 247.98 258.02 248.10 C 279.93 248.70 302.09 253.18 321.58 263.47 C 341.10 273.94 356.91 290.94 366.22 311.01 C 292.74 310.90 219.27 311.01 145.79 310.95 C 156.45 287.92 175.84 269.08 199.24 259.24 Z" />
</g>
<g id="#fcafc7ff">
<path fill="#fcafc7" opacity="1.00" d=" M 145.79 310.95 C 219.27 311.01 292.74 310.90 366.22 311.01 C 371.26 322.01 374.63 333.89 375.40 345.99 C 375.12 347.94 374.80 349.88 374.52 351.83 C 357.37 352.36 340.17 351.77 323.01 352.06 C 281.02 351.99 239.03 352.09 197.04 352.02 C 177.16 351.93 157.27 352.27 137.40 351.79 C 137.16 349.85 136.87 347.91 136.60 345.98 C 137.34 333.86 140.74 321.96 145.79 310.95 Z" />
</g>
<g id="#ffbac4ff">
<path fill="#ffbac4" opacity="1.00" d=" M 136.01 374.09 C 136.20 364.72 135.49 355.30 136.60 345.98 C 136.87 347.91 137.16 349.85 137.40 351.79 C 157.27 352.27 177.16 351.93 197.04 352.02 C 239.03 352.09 281.02 351.99 323.01 352.06 C 340.17 351.77 357.37 352.36 374.52 351.83 C 374.80 349.88 375.12 347.94 375.40 345.99 C 376.41 353.97 375.84 362.02 376.00 370.04 C 376.16 374.99 375.77 380.13 373.58 384.65 C 370.52 391.28 364.24 396.28 357.10 397.78 C 290.10 411.34 220.37 411.30 153.43 397.42 C 143.21 394.67 135.91 384.60 136.01 374.09 Z" />
</g>
</svg>
