<?xml version="1.0" encoding="UTF-8" ?>
<!DOCTYPE svg PUBLIC "-//W3C//DTD SVG 1.1//EN" "http://www.w3.org/Graphics/SVG/1.1/DTD/svg11.dtd">
<svg width="512pt" height="512pt" viewBox="0 0 512 512" version="1.1" xmlns="http://www.w3.org/2000/svg">
<g id="#6e3822ff">
<path fill="#6e3822" opacity="1.00" d=" M 354.02 27.84 C 379.12 21.51 406.63 22.80 430.05 34.40 C 418.51 46.09 406.14 57.06 395.89 69.95 C 370.95 100.37 354.05 137.29 347.27 176.05 C 341.40 209.57 328.30 241.84 308.72 269.70 C 301.19 280.54 292.56 290.58 283.48 300.14 C 281.35 286.99 279.02 273.81 274.91 261.10 C 273.56 256.10 271.96 251.14 269.53 246.54 C 282.08 217.36 294.69 188.20 307.25 159.02 C 302.54 158.99 297.83 158.99 293.12 159.01 C 283.00 182.41 272.97 205.84 262.88 229.25 C 258.18 220.64 254.12 211.64 248.45 203.59 C 242.46 194.42 236.08 185.44 228.35 177.64 C 224.36 171.90 218.33 168.17 213.44 163.27 C 226.05 129.73 246.36 99.09 272.29 74.37 C 295.28 52.69 323.13 35.43 354.02 27.84 M 300.34 90.33 C 296.94 91.09 294.24 93.42 291.76 95.73 C 288.49 98.75 284.12 101.00 282.37 105.32 C 280.81 110.23 285.08 115.59 290.04 115.86 C 293.83 115.58 296.83 112.91 299.29 110.23 C 302.77 106.80 308.33 104.47 309.02 99.06 C 310.03 94.14 304.98 89.79 300.34 90.33 M 270.34 119.40 C 267.50 120.21 265.63 122.67 263.86 124.86 C 257.72 132.97 252.04 141.50 247.65 150.69 C 246.15 153.55 244.07 156.58 245.13 159.98 C 246.46 166.19 255.87 167.65 259.21 162.30 C 264.59 153.11 269.57 143.61 276.15 135.19 C 278.14 132.51 280.69 129.58 280.05 125.98 C 279.64 121.50 274.49 118.54 270.34 119.40 Z" />
<path fill="#6e3822" opacity="1.00" d=" M 455.49 53.02 C 471.39 69.65 481.12 91.48 484.95 114.02 C 490.02 143.17 486.44 173.34 477.51 201.38 C 469.66 225.94 457.47 249.00 442.31 269.81 C 431.88 259.73 421.36 249.74 410.83 239.77 C 433.13 217.81 456.10 196.49 478.54 174.66 C 478.56 174.03 478.60 172.76 478.62 172.12 C 473.03 171.85 467.43 172.08 461.84 171.98 C 440.23 192.95 418.93 214.24 397.30 235.19 C 397.39 214.13 397.32 193.07 397.34 172.01 C 392.61 171.99 387.89 171.97 383.18 172.03 C 383.22 218.38 383.17 264.72 383.20 311.07 C 387.91 311.13 392.62 311.10 397.34 311.09 C 397.44 289.04 397.14 266.97 397.49 244.93 C 409.76 256.58 421.98 268.29 434.29 279.91 C 421.06 296.11 405.53 310.46 388.22 322.21 C 365.06 337.89 338.17 348.97 310.05 350.71 C 301.58 351.05 292.78 351.26 284.57 349.03 C 284.99 345.79 284.96 342.51 285.07 339.25 C 327.71 307.59 358.52 260.51 370.88 208.88 C 374.10 195.59 375.87 181.96 379.90 168.87 C 388.88 137.64 404.71 108.48 425.68 83.68 C 434.86 72.75 445.58 63.26 455.49 53.02 Z" />
</g>
<g id="#964f32ff">
<path fill="#964f32" opacity="1.00" d=" M 395.89 69.95 C 406.14 57.06 418.51 46.09 430.05 34.40 C 439.55 39.00 448.22 45.38 455.49 53.02 C 445.58 63.26 434.86 72.75 425.68 83.68 C 404.71 108.48 388.88 137.64 379.90 168.87 C 375.87 181.96 374.10 195.59 370.88 208.88 C 358.52 260.51 327.71 307.59 285.07 339.25 C 285.43 326.18 285.03 313.13 283.48 300.14 C 292.56 290.58 301.19 280.54 308.72 269.70 C 328.30 241.84 341.40 209.57 347.27 176.05 C 354.05 137.29 370.95 100.37 395.89 69.95 Z" />
</g>
<g id="#82442bff">
<path fill="#82442b" opacity="1.00" d=" M 300.34 90.33 C 304.98 89.79 310.03 94.14 309.02 99.06 C 308.33 104.47 302.77 106.80 299.29 110.23 C 296.83 112.91 293.83 115.58 290.04 115.86 C 285.08 115.59 280.81 110.23 282.37 105.32 C 284.12 101.00 288.49 98.75 291.76 95.73 C 294.24 93.42 296.94 91.09 300.34 90.33 Z" />
<path fill="#82442b" opacity="1.00" d=" M 270.34 119.40 C 274.49 118.54 279.64 121.50 280.05 125.98 C 280.69 129.58 278.14 132.51 276.15 135.19 C 269.57 143.61 264.59 153.11 259.21 162.30 C 255.87 167.65 246.46 166.19 245.13 159.98 C 244.07 156.58 246.15 153.55 247.65 150.69 C 252.04 141.50 257.72 132.97 263.86 124.86 C 265.63 122.67 267.50 120.21 270.34 119.40 Z" />
<path fill="#82442b" opacity="1.00" d=" M 138.19 132.46 C 166.03 132.95 192.56 145.33 213.44 163.27 C 218.33 168.17 224.36 171.90 228.35 177.64 C 236.08 185.44 242.46 194.42 248.45 203.59 C 254.12 211.64 258.18 220.64 262.88 229.25 C 248.90 261.84 234.85 294.39 220.87 326.98 C 225.53 327.00 230.18 327.03 234.84 326.97 C 246.40 300.16 257.93 273.34 269.53 246.54 C 271.96 251.14 273.56 256.10 274.91 261.10 C 279.02 273.81 281.35 286.99 283.48 300.14 C 285.03 313.13 285.43 326.18 285.07 339.25 C 284.96 342.51 284.99 345.79 284.57 349.03 C 282.05 373.65 276.02 398.19 264.17 420.06 C 253.90 439.24 239.15 456.43 220.24 467.49 C 219.71 464.29 220.06 461.07 220.60 457.91 C 227.27 412.48 220.55 365.02 200.51 323.64 C 190.43 300.48 173.00 281.56 162.34 258.72 C 157.80 249.82 154.02 240.55 150.80 231.11 C 149.44 227.23 148.57 223.16 146.56 219.55 C 153.22 203.68 159.91 187.83 166.64 172.00 C 161.39 172.00 156.13 171.99 150.87 172.00 C 147.78 179.49 144.70 186.99 141.64 194.50 C 137.43 174.09 138.23 153.17 138.19 132.46 Z" />
<path fill="#82442b" opacity="1.00" d=" M 52.24 181.12 C 65.46 161.60 84.16 144.96 106.88 137.66 C 107.44 150.75 106.45 163.88 107.33 176.98 C 109.01 199.57 113.28 222.14 121.54 243.28 C 114.38 260.68 107.30 278.12 100.03 295.47 C 84.12 257.73 68.45 219.89 52.64 182.11 L 52.24 181.12 Z" />
<path fill="#82442b" opacity="1.00" d=" M 32.76 222.88 C 35.64 213.93 38.83 205.00 43.38 196.75 C 59.69 234.81 75.91 272.90 92.14 311.00 C 97.39 311.18 102.65 311.11 107.90 311.04 C 114.87 294.50 121.87 277.97 128.84 261.43 C 134.73 273.44 141.50 285.02 149.05 296.07 C 180.00 339.45 195.35 393.79 191.25 446.96 C 190.64 457.82 188.44 468.52 187.82 479.37 C 167.93 482.56 147.29 479.31 129.00 471.03 C 105.99 460.74 86.50 443.71 71.05 423.98 C 49.95 396.93 36.04 364.64 29.09 331.14 C 21.66 295.48 22.09 257.85 32.76 222.88 M 88.36 389.37 C 84.19 391.50 82.26 396.99 85.00 401.01 C 88.40 405.57 91.64 410.33 95.74 414.28 C 99.84 418.00 106.97 415.24 108.26 410.10 C 109.46 406.72 107.29 403.34 105.16 400.87 C 102.59 398.05 100.51 394.86 98.17 391.87 C 95.97 388.96 91.67 387.94 88.36 389.37 M 117.24 419.33 C 112.32 420.72 110.12 426.91 112.77 431.17 C 116.76 435.97 122.17 439.23 127.05 443.03 C 133.02 447.10 139.03 451.12 145.35 454.63 C 149.77 456.59 155.25 454.39 156.67 449.68 C 157.84 445.78 155.46 441.76 152.03 439.94 C 143.30 434.89 134.81 429.39 127.13 422.84 C 124.40 420.61 120.99 417.93 117.24 419.33 Z" />
</g>
<g id="#a15537ff">
<path fill="#a15537" opacity="1.00" d=" M 106.87 137.36 C 116.94 134.04 127.57 132.21 138.19 132.46 C 138.23 153.17 137.43 174.09 141.64 194.50 C 134.92 210.75 128.28 227.04 121.54 243.28 C 113.28 222.14 109.01 199.57 107.33 176.98 C 106.45 163.88 107.44 150.75 106.88 137.66 L 106.87 137.36 Z" />
<path fill="#a15537" opacity="1.00" d=" M 128.84 261.43 C 134.76 247.47 140.60 233.48 146.56 219.55 C 148.57 223.16 149.44 227.23 150.80 231.11 C 154.02 240.55 157.80 249.82 162.34 258.72 C 173.00 281.56 190.43 300.48 200.51 323.64 C 220.55 365.02 227.27 412.48 220.60 457.91 C 220.06 461.07 219.71 464.29 220.24 467.49 C 210.41 473.58 199.24 477.60 187.82 479.37 C 188.44 468.52 190.64 457.82 191.25 446.96 C 195.35 393.79 180.00 339.45 149.05 296.07 C 141.50 285.02 134.73 273.44 128.84 261.43 Z" />
</g>
<g id="#efeadbff">
<path fill="#efeadb" opacity="1.00" d=" M 293.12 159.01 C 297.83 158.99 302.54 158.99 307.25 159.02 C 294.69 188.20 282.08 217.36 269.53 246.54 C 257.93 273.34 246.40 300.16 234.84 326.97 C 230.18 327.03 225.53 327.00 220.87 326.98 C 234.85 294.39 248.90 261.84 262.88 229.25 C 272.97 205.84 283.00 182.41 293.12 159.01 Z" />
<path fill="#efeadb" opacity="1.00" d=" M 32.93 172.00 C 38.03 171.97 43.12 172.07 48.22 171.95 C 49.85 175.26 51.06 178.77 52.64 182.11 C 68.45 219.89 84.12 257.73 100.03 295.47 C 107.30 278.12 114.38 260.68 121.54 243.28 C 128.28 227.04 134.92 210.75 141.64 194.50 C 144.70 186.99 147.78 179.49 150.87 172.00 C 156.13 171.99 161.39 172.00 166.64 172.00 C 159.91 187.83 153.22 203.68 146.56 219.55 C 140.60 233.48 134.76 247.47 128.84 261.43 C 121.87 277.97 114.87 294.50 107.90 311.04 C 102.65 311.11 97.39 311.18 92.14 311.00 C 75.91 272.90 59.69 234.81 43.38 196.75 C 40.07 188.43 36.38 180.27 32.93 172.00 Z" />
<path fill="#efeadb" opacity="1.00" d=" M 383.18 172.03 C 387.89 171.97 392.61 171.99 397.34 172.01 C 397.32 193.07 397.39 214.13 397.30 235.19 C 418.93 214.24 440.23 192.95 461.84 171.98 C 467.43 172.08 473.03 171.85 478.62 172.12 C 478.60 172.76 478.56 174.03 478.54 174.66 C 456.10 196.49 433.13 217.81 410.83 239.77 C 421.36 249.74 431.88 259.73 442.31 269.81 C 454.71 281.69 467.16 293.51 479.58 305.37 C 481.36 307.11 483.31 308.70 484.83 310.69 C 478.96 311.49 472.95 310.87 467.03 311.04 C 456.13 300.65 445.25 290.23 434.29 279.91 C 421.98 268.29 409.76 256.58 397.49 244.93 C 397.14 266.97 397.44 289.04 397.34 311.09 C 392.62 311.10 387.91 311.13 383.20 311.07 C 383.17 264.72 383.22 218.38 383.18 172.03 Z" />
</g>
<g id="#9c5336ff">
<path fill="#9c5336" opacity="1.00" d=" M 88.36 389.37 C 91.67 387.94 95.97 388.96 98.17 391.87 C 100.51 394.86 102.59 398.05 105.16 400.87 C 107.29 403.34 109.46 406.72 108.26 410.10 C 106.97 415.24 99.84 418.00 95.74 414.28 C 91.64 410.33 88.40 405.57 85.00 401.01 C 82.26 396.99 84.19 391.50 88.36 389.37 Z" />
<path fill="#9c5336" opacity="1.00" d=" M 117.24 419.33 C 120.99 417.93 124.40 420.61 127.13 422.84 C 134.81 429.39 143.30 434.89 152.03 439.94 C 155.46 441.76 157.84 445.78 156.67 449.68 C 155.25 454.39 149.77 456.59 145.35 454.63 C 139.03 451.12 133.02 447.10 127.05 443.03 C 122.17 439.23 116.76 435.97 112.77 431.17 C 110.12 426.91 112.32 420.72 117.24 419.33 Z" />
</g>
</svg>
